<mxfile host="app.diagrams.net" agent="Mozilla/5.0 (Windows NT 10.0; Win64; x64) AppleWebKit/537.36 (KHTML, like Gecko) Chrome/131.0.0.0 Safari/537.36" version="24.8.4">
  <diagram name="Страница — 1" id="g7j2rpRfnywUZuS5MIoD">
    <mxGraphModel dx="1050" dy="530" grid="1" gridSize="10" guides="1" tooltips="1" connect="1" arrows="1" fold="1" page="1" pageScale="1" pageWidth="2339" pageHeight="3300" math="0" shadow="0">
      <root>
        <mxCell id="0" />
        <mxCell id="1" parent="0" />
        <mxCell id="2e8s7ZAg-ALqyOAnAbtS-4" style="edgeStyle=orthogonalEdgeStyle;rounded=0;orthogonalLoop=1;jettySize=auto;html=1;" edge="1" parent="1" source="2e8s7ZAg-ALqyOAnAbtS-1" target="2e8s7ZAg-ALqyOAnAbtS-5">
          <mxGeometry relative="1" as="geometry">
            <mxPoint x="210" y="120" as="targetPoint" />
          </mxGeometry>
        </mxCell>
        <mxCell id="2e8s7ZAg-ALqyOAnAbtS-1" value="Start" style="ellipse;whiteSpace=wrap;html=1;" vertex="1" parent="1">
          <mxGeometry x="170" y="50" width="90" height="40" as="geometry" />
        </mxCell>
        <mxCell id="2e8s7ZAg-ALqyOAnAbtS-6" style="edgeStyle=orthogonalEdgeStyle;rounded=0;orthogonalLoop=1;jettySize=auto;html=1;" edge="1" parent="1" source="2e8s7ZAg-ALqyOAnAbtS-5" target="2e8s7ZAg-ALqyOAnAbtS-7">
          <mxGeometry relative="1" as="geometry">
            <mxPoint x="215" y="180" as="targetPoint" />
          </mxGeometry>
        </mxCell>
        <mxCell id="2e8s7ZAg-ALqyOAnAbtS-5" value="double x = 0.25, y = 0.79, z = 0.81" style="rounded=0;whiteSpace=wrap;html=1;" vertex="1" parent="1">
          <mxGeometry x="155" y="110" width="120" height="40" as="geometry" />
        </mxCell>
        <mxCell id="2e8s7ZAg-ALqyOAnAbtS-8" style="edgeStyle=orthogonalEdgeStyle;rounded=0;orthogonalLoop=1;jettySize=auto;html=1;" edge="1" parent="1" source="2e8s7ZAg-ALqyOAnAbtS-7" target="2e8s7ZAg-ALqyOAnAbtS-9">
          <mxGeometry relative="1" as="geometry">
            <mxPoint x="215" y="240" as="targetPoint" />
          </mxGeometry>
        </mxCell>
        <mxCell id="2e8s7ZAg-ALqyOAnAbtS-7" value="numeratorP = 1 + pow(sin(x + 1), 2)" style="rounded=0;whiteSpace=wrap;html=1;" vertex="1" parent="1">
          <mxGeometry x="155" y="170" width="120" height="40" as="geometry" />
        </mxCell>
        <mxCell id="2e8s7ZAg-ALqyOAnAbtS-10" style="edgeStyle=orthogonalEdgeStyle;rounded=0;orthogonalLoop=1;jettySize=auto;html=1;" edge="1" parent="1" source="2e8s7ZAg-ALqyOAnAbtS-9" target="2e8s7ZAg-ALqyOAnAbtS-11">
          <mxGeometry relative="1" as="geometry">
            <mxPoint x="215" y="320" as="targetPoint" />
          </mxGeometry>
        </mxCell>
        <mxCell id="2e8s7ZAg-ALqyOAnAbtS-9" value="denominatorP = 2 + abs(x - 2 * pow(x, 3) / (1 + pow(x, 2) * pow(y, 3)))" style="rounded=0;whiteSpace=wrap;html=1;" vertex="1" parent="1">
          <mxGeometry x="155" y="240" width="120" height="60" as="geometry" />
        </mxCell>
        <mxCell id="2e8s7ZAg-ALqyOAnAbtS-12" style="edgeStyle=orthogonalEdgeStyle;rounded=0;orthogonalLoop=1;jettySize=auto;html=1;" edge="1" parent="1" source="2e8s7ZAg-ALqyOAnAbtS-11" target="2e8s7ZAg-ALqyOAnAbtS-13">
          <mxGeometry relative="1" as="geometry">
            <mxPoint x="215" y="410" as="targetPoint" />
            <Array as="points">
              <mxPoint x="310" y="345" />
              <mxPoint x="310" y="30" />
              <mxPoint x="408" y="30" />
            </Array>
          </mxGeometry>
        </mxCell>
        <mxCell id="2e8s7ZAg-ALqyOAnAbtS-11" value="P = numeratorP / denominatorP + pow(x, 4)" style="rounded=0;whiteSpace=wrap;html=1;" vertex="1" parent="1">
          <mxGeometry x="155" y="320" width="120" height="50" as="geometry" />
        </mxCell>
        <mxCell id="2e8s7ZAg-ALqyOAnAbtS-14" style="edgeStyle=orthogonalEdgeStyle;rounded=0;orthogonalLoop=1;jettySize=auto;html=1;" edge="1" parent="1" source="2e8s7ZAg-ALqyOAnAbtS-13" target="2e8s7ZAg-ALqyOAnAbtS-16">
          <mxGeometry relative="1" as="geometry">
            <mxPoint x="407.5" y="140" as="targetPoint" />
          </mxGeometry>
        </mxCell>
        <mxCell id="2e8s7ZAg-ALqyOAnAbtS-13" value="Q = pow(cos(atan(1 / z)), 2)" style="rounded=0;whiteSpace=wrap;html=1;" vertex="1" parent="1">
          <mxGeometry x="347.5" y="60" width="120" height="50" as="geometry" />
        </mxCell>
        <mxCell id="2e8s7ZAg-ALqyOAnAbtS-17" style="edgeStyle=orthogonalEdgeStyle;rounded=0;orthogonalLoop=1;jettySize=auto;html=1;" edge="1" parent="1" source="2e8s7ZAg-ALqyOAnAbtS-16" target="2e8s7ZAg-ALqyOAnAbtS-18">
          <mxGeometry relative="1" as="geometry">
            <mxPoint x="407.5" y="210" as="targetPoint" />
          </mxGeometry>
        </mxCell>
        <mxCell id="2e8s7ZAg-ALqyOAnAbtS-16" value="cout &amp;lt;&amp;lt; &quot;P = &quot; &amp;lt;&amp;lt; P" style="shape=parallelogram;perimeter=parallelogramPerimeter;whiteSpace=wrap;html=1;fixedSize=1;" vertex="1" parent="1">
          <mxGeometry x="340" y="130" width="135" height="50" as="geometry" />
        </mxCell>
        <mxCell id="2e8s7ZAg-ALqyOAnAbtS-20" style="edgeStyle=orthogonalEdgeStyle;rounded=0;orthogonalLoop=1;jettySize=auto;html=1;" edge="1" parent="1" source="2e8s7ZAg-ALqyOAnAbtS-18" target="2e8s7ZAg-ALqyOAnAbtS-21">
          <mxGeometry relative="1" as="geometry">
            <mxPoint x="407.5" y="290" as="targetPoint" />
          </mxGeometry>
        </mxCell>
        <mxCell id="2e8s7ZAg-ALqyOAnAbtS-18" value="cout &amp;lt;&amp;lt; &quot;Q = &quot; &amp;lt;&amp;lt; Q" style="shape=parallelogram;perimeter=parallelogramPerimeter;whiteSpace=wrap;html=1;fixedSize=1;" vertex="1" parent="1">
          <mxGeometry x="341.25" y="210" width="132.5" height="60" as="geometry" />
        </mxCell>
        <mxCell id="2e8s7ZAg-ALqyOAnAbtS-21" value="End" style="ellipse;whiteSpace=wrap;html=1;" vertex="1" parent="1">
          <mxGeometry x="347.5" y="300" width="120" height="50" as="geometry" />
        </mxCell>
      </root>
    </mxGraphModel>
  </diagram>
</mxfile>
